<svg height="512pt" viewBox="0 -113 512.001 512" width="512pt" xmlns="http://www.w3.org/2000/svg"><path d="m164.644531 69.988281c-1.28125-3.9375-5.507812-6.089843-9.449219-4.816406-3.941406 1.277344-6.097656 5.507813-4.816406 9.449219l6.835938 21.058594c1.027344 3.167968 3.96875 5.1875 7.132812 5.1875.765625 0 1.546875-.121094 2.316406-.371094 3.941407-1.277344 6.097657-5.507813 4.816407-9.449219zm0 0"/><path d="m198.8125 69.988281c-1.28125-3.9375-5.511719-6.089843-9.449219-4.816406-3.941406 1.277344-6.097656 5.507813-4.816406 9.449219l6.835937 21.058594c1.027344 3.167968 3.96875 5.1875 7.132813 5.1875.765625 0 1.546875-.121094 2.316406-.371094 3.9375-1.277344 6.097657-5.507813 4.816407-9.449219zm0 0"/><path d="m356.804688 65.171875c-3.9375-1.277344-8.167969.875-9.449219 4.816406l-6.835938 21.058594c-1.277343 3.941406.878907 8.171875 4.816407 9.449219.769531.25 1.550781.367187 2.316406.367187 3.164062 0 6.105468-2.015625 7.132812-5.183593l6.835938-21.058594c1.28125-3.941406-.875-8.171875-4.816406-9.449219zm0 0"/><path d="m322.640625 65.171875c-3.941406-1.277344-8.171875.875-9.449219 4.816406l-6.839844 21.058594c-1.277343 3.941406.878907 8.171875 4.820313 9.449219.769531.25 1.546875.367187 2.316406.367187 3.160157 0 6.101563-2.015625 7.132813-5.183593l6.835937-21.058594c1.277344-3.941406-.878906-8.171875-4.816406-9.449219zm0 0"/><path d="m486.230469 57h-13.574219v-17.332031h31.84375c4.144531 0 7.5-3.359375 7.5-7.5 0-4.144531-3.355469-7.5-7.5-7.5h-31.855469c-.363281-10.277344-8.835937-18.527344-19.199219-18.527344h-8.230468c-10.363282 0-18.835938 8.25-19.199219 18.527344h-31.855469c-4.144531 0-7.5 3.355469-7.5 7.5 0 4.140625 3.355469 7.5 7.5 7.5h31.84375v17.332031h-11.449218c-16.355469 0-31.507813-9.523438-38.605469-24.253906-9.585938-19.894532-30.042969-32.746094-52.121094-32.746094h-135.65625c-22.078125 0-42.535156 12.851562-52.121094 32.746094-7.097656 14.730468-22.25 24.253906-38.605469 24.253906h-11.449218v-17.332031h31.84375c4.140625 0 7.5-3.359375 7.5-7.5 0-4.144531-3.359375-7.5-7.5-7.5h-31.855469c-.363281-10.277344-8.835937-18.527344-19.199219-18.527344h-8.230468c-10.363282 0-18.835938 8.25-19.199219 18.527344h-31.855469c-4.140625 0-7.5 3.355469-7.5 7.5 0 4.140625 3.359375 7.5 7.5 7.5h31.84375v17.332031h-13.574219c-14.210937 0-25.769531 11.558594-25.769531 25.765625 0 21.609375 17.578125 39.1875 39.1875 39.1875h44.089844l-3.210938 26.824219c-.492187 4.113281 2.445313 7.847656 6.554688 8.339844.304687.035156.605468.054687.902344.054687 3.742187 0 6.980468-2.800781 7.4375-6.609375l3.425781-28.605469h28.917969l-40.925782 149.265625h-5.859375l10.292969-86.007812c.492188-4.113282-2.441406-7.847656-6.554688-8.339844-4.117187-.492188-7.847656 2.441406-8.339843 6.554688l-10.605469 88.613281c-.539062 3.507812.449219 7.066406 2.742188 9.792969 2.34375 2.789062 5.773437 4.386718 9.417968 4.386718h10.96875c5.328125 0 10.023438-3.394531 11.6875-8.457031.039063-.117187.074219-.238281.109375-.359375l42.578125-155.304688c7.429688.710938 14.320313 3.945313 19.664063 9.289063 5.878906 5.878906 13.03125 10.015625 20.835937 12.15625v21.730469h-30.59375c-9.542968 0-17.304687 7.761718-17.304687 17.304687v76.285157c0 9.542968 7.761719 17.304687 17.304687 17.304687h206.554688c9.539062 0 17.304687-7.761719 17.304687-17.304687v-76.285157c0-9.539062-7.765625-17.300781-17.304687-17.300781h-30.597656v-21.734375c7.804687-2.136719 14.960937-6.273437 20.835937-12.152344 5.34375-5.347656 12.238281-8.582031 19.667969-9.292969l42.578125 155.304688c.03125.121094.070312.242188.109375.359375 1.664062 5.0625 6.359375 8.457031 11.6875 8.457031h10.96875c3.644531 0 7.078125-1.597656 9.421875-4.390625 2.289062-2.726562 3.277343-6.28125 2.734375-9.789062l-10.574219-88.386719c-.492187-4.109375-4.230469-7.050781-8.339844-6.554688-4.113281.492188-7.046875 4.226563-6.554687 8.339844l10.265625 85.78125h-5.859375l-40.921875-149.269531h28.917969l3.449218 28.832031c.457032 3.808594 3.691406 6.609375 7.4375 6.609375.296875 0 .597656-.019531.902344-.054687 4.109375-.492188 7.046875-4.226563 6.554688-8.339844l-3.238282-27.046875h44.089844c21.609375 0 39.1875-17.582031 39.1875-39.1875 0-14.207031-11.558594-25.765625-25.769531-25.765625zm-45.226563-31.652344c0-2.316406 1.890625-4.207031 4.210938-4.207031h8.230468c2.320313 0 4.210938 1.890625 4.210938 4.207031v31.648438h-16.652344zm-386.660156 0c0-2.316406 1.886719-4.207031 4.207031-4.207031h8.234375c2.320313 0 4.207032 1.890625 4.207032 4.207031v31.648438h-16.648438zm304.933594 154.933594c1.269531 0 2.304687 1.03125 2.304687 2.300781v76.289063c0 1.269531-1.035156 2.300781-2.304687 2.300781h-206.554688c-1.269531 0-2.300781-1.03125-2.300781-2.300781v-76.289063c0-1.269531 1.03125-2.300781 2.300781-2.300781h77.777344v33.527344c0 7.949218 6.46875 14.417968 14.417969 14.417968h22.164062c7.949219 0 14.417969-6.46875 14.417969-14.417968v-33.527344zm-160.957032-15v-20.058594h10.46875l-2.929687 20.058594zm22.699219 0 2.925781-20.058594h64.109376l2.925781 20.058594zm45.480469 15v32.945312h-21v-32.945312zm36.710938-35.058594h10.46875v20.058594h-7.539063zm169.601562-38.265625h-100.507812c-12.613282 0-24.476563 4.910157-33.394532 13.832031-5 4.996094-11.351562 8.152344-18.230468 9.117188-.304688.019531-.605469.058594-.898438.117188-1.207031.132812-2.425781.203124-3.65625.203124h-120.25c-1.230469 0-2.453125-.070312-3.660156-.203124-.292969-.058594-.589844-.097657-.894532-.117188-6.878906-.964844-13.234374-4.121094-18.230468-9.121094-8.921875-8.917968-20.78125-13.828125-33.394532-13.828125h-100.507812c-13.335938 0-24.1875-10.851562-24.1875-24.191406 0-5.9375 4.832031-10.769531 10.769531-10.769531h71.675781c22.082032 0 42.539063-12.851563 52.121094-32.742188 7.097656-14.734375 22.253906-24.253906 38.605469-24.253906h135.65625c16.355469 0 31.507813 9.519531 38.605469 24.253906 9.582031 19.890625 30.042968 32.742188 52.121094 32.742188l50.601562.003906c.027344 0 .050781-.003906.078125-.003906h20.996094c5.941406 0 10.769531 4.832031 10.769531 10.769531 0 13.339844-10.851562 24.191406-24.1875 24.191406zm0 0"/></svg>