<svg height="512pt" viewBox="-66 0 512 512.00102" width="512pt" xmlns="http://www.w3.org/2000/svg"><path d="m350.269531 256.375c-16.300781-16.296875-33.167969-41.515625-41.410156-57.996094-5.3125-10.617187-17.8125-20.550781-34.570313-27.726562.054688-.550782.230469-1.070313.175782-1.640625-.765625-8.285157-2.019532-16.351563-3.566406-24.183594 14.308593-2.007813 31.234374-1.59375 50.464843 1.363281.140625.023438.269531-.035156.410157-.019531.304687.019531.589843.121094.902343.121094.660157 0 1.273438-.179688 1.914063-.253907.082031-.019531.164062-.011718.242187-.03125 11.152344-1.445312 19.355469-13.703124 19.355469-29.828124 0-16.203126-8.277344-28.503907-19.511719-29.851563-.050781-.015625-.085937-.050781-.132812-.0625-2.214844-.496094-37.953125-8.050781-77.59375.25-5.480469-7.074219-11.691407-12.824219-18.570313-17.164063 2.195313-2.378906 6.792969-6.660156 15.882813-12.71875 4.78125-3.183593 8.03125-8.046874 9.160156-13.679687 1.132813-5.632813-.007813-11.367187-3.195313-16.144531-3.183593-4.792969-8.046874-8.046875-13.6875-9.171875-5.613281-1.105469-11.359374.015625-16.140624 3.199219-7.199219 4.796874-13.171876 9.492187-18.1875 14.101562v-13.414062c0-11.859376-9.644532-21.5117192-21.511719-21.5117192-11.867188 0-21.511719 9.6523432-21.511719 21.5117192v14.445312c-14.242188-21.890625-36.484375-33.085938-37.90625-33.777344-5.152344-2.519531-10.992188-2.886718-16.4375-1-5.4375 1.871094-9.8125 5.753906-12.328125 10.921875-2.511719 5.164063-2.863281 11-.992187 16.433594 1.875 5.433594 5.757812 9.8125 10.875 12.296875.277343.132812 27.261718 13.878906 25.464843 36.132812-.097656 1.207032-.042969 2.402344.058594 3.585938-5.230469 3.351562-10.039063 6.914062-14.414063 10.667969-.898437-.417969-1.851562-.75-2.898437-.835938-25.351563-2.09375-54.074219-2.09375-85.367187-.007812-.421876.027343-.769532.234375-1.167969.320312-.851563-.132812-1.679688-.34375-2.5625-.34375-12.257813 0-21.511719 12.949219-21.511719 30.117188s9.253906 30.117187 21.511719 30.117187c.90625 0 1.757812-.210937 2.628906-.347656.664063.136719 1.304687.355469 2.019531.339844.25-.007813 22.625-.875 49.035156-.214844-5.808593 18.453125-7.398437 36.035156-7.5 49.019531-17.171874 15.898438-97.886718 97.632813-40.324218 179.863281 61.007812 87.148438 166.601562 132.742188 239.378906 132.742188 71.148438 0 102.402344-10.59375 111.78125-76.226562 8.464844-59.328126-7.109375-158.25-28.261719-179.398438zm-93.484375-90.191406-25-3.824219c1.082032-1.125 2.113282-2.257813 3.398438-3.339844 5.144531-4.351562 11.585937-7.683593 18.960937-10.203125 1.089844 5.648438 1.976563 11.441406 2.640625 17.367188zm61.589844-50.003906c0-7.851563 3.242188-12.492188 4.125-12.933594 1.234375.441406 4.476562 5.078125 4.476562 12.933594 0 7.496093-2.953124 12.066406-4.296874 12.84375h-.003907c-1.347656-.777344-4.300781-5.347657-4.300781-12.84375zm-88.429688-81.027344c.851563-.570313 1.699219-.71875 2.371094-.71875.335938 0 .632813.039062.851563.082031.65625.132813 1.882812.542969 2.738281 1.839844.863281 1.289062.769531 2.574219.636719 3.226562-.125.652344-.535157 1.871094-1.832031 2.734375-15.738282 10.492188-21.175782 17.402344-23.015626 20.589844-.460937.789062-.789062 1.648438-.972656 2.542969-.414062 1.972656-2.1875 3.40625-4.210937 3.40625-2.371094 0-4.300781-1.929688-4.300781-4.304688-.003907-1.820312 1.332031-11.796875 27.734374-29.398437zm-53.550781-13.628906c0-2.375 1.929688-4.300782 4.300781-4.300782 2.371094 0 4.304688 1.925782 4.304688 4.300782v43.027343c0 2.375-1.933594 4.300781-4.304688 4.300781-2.371093 0-4.300781-1.925781-4.300781-4.300781zm-66.417969 3.867187c-1.394531-.675781-1.96875-1.832031-2.1875-2.460937-.21875-.628907-.480468-1.890626.203126-3.289063.679687-1.390625 1.832031-1.964844 2.460937-2.179687.328125-.117188.824219-.242188 1.421875-.242188.542969 0 1.191406.109375 1.855469.4375 1.765625.855469 43.074219 21.460938 39.855469 61.382812-.175782 2.21875-2.050782 3.960938-4.269532 3.960938l-.359375-.011719c-1.546875-.128906-2.503906-.996093-2.933593-1.5-.429688-.507812-1.132813-1.585937-1.007813-3.132812 2.746094-34.144531-33.496094-52.210938-35.039063-52.964844zm-88.648437 82.15625c1.234375.441406 4.480469 5.078125 4.480469 12.933594 0 7.5-2.957032 12.070312-4.304688 12.851562-1.34375-.777343-4.300781-5.347656-4.300781-12.851562 0-7.851563 3.246094-12.492188 4.125-12.933594zm19.832031 25.464844c1.179688-3.785157 1.859375-7.996094 1.859375-12.53125 0-5.007813-.863281-9.585938-2.285156-13.660157 20.574219-.953124 39.804687-.929687 57.507813.070313-6.898438 8.484375-12.277344 17.4375-16.46875 26.460937-15.515626-.523437-30.144532-.496093-40.613282-.339843zm320.320313 300.328125c-7.679688 53.800781-27.089844 61.453125-94.738281 61.453125-68.324219 0-167.652344-43.074219-225.28125-125.402344-11.671876-16.675781-42.589844-74.949219 27.902343-147.539063.242188.816407.441407 1.648438.914063 2.359376.703125 1.0625 7.332031 10.457031 21.601562 12.671874 1.984375.308594 4 .460938 6.058594.460938 13.523438 0 28.664062-6.636719 45.109375-19.789062 3.707031-2.96875 4.3125-8.382813 1.34375-12.09375-2.972656-3.707032-8.378906-4.320313-12.097656-1.34375-18.402344 14.71875-30.421875 16.742187-37.328125 15.820312-4.824219-.636719-7.855469-2.820312-9.328125-4.167969-1.550781-13.929687-5.894531-82.839843 50.632812-119.984375 3.246094 2.488282 7.121094 4.019532 11.28125 4.351563.597657.050781 1.167969.074219 1.765625.074219 10.148438 0 18.792969-7.269532 20.925782-16.972657 3.105468 1.746094 6.640624 2.824219 10.453124 2.824219 4.859376 0 9.300782-1.679688 12.90625-4.410156 3.605469 2.730468 8.042969 4.410156 12.90625 4.410156 4.011719 0 7.792969-1.179688 11.0625-3.15625 3.917969 2.253906 7.601563 5.148438 11.023438 8.648438-13.988281 4.78125-27.910156 11.828124-40.503906 22.320312-3.648438 3.039062-4.144532 8.464844-1.101563 12.117188 1.703125 2.039062 4.152344 3.09375 6.621094 3.09375 1.9375 0 3.890625-.65625 5.503906-1.996094 33.832031-28.199219 80.441407-28.539063 104.988281-26.3125-1.835937 4.472656-2.941406 9.664062-2.941406 15.402344 0 3.832031.523438 7.398437 1.375 10.714843-34.574218-2.3125-61.097656 4.074219-78.835937 19.296875-21.25 18.234375-21.496094 42.121094-21.496094 43.128906l.144531 3.589844c-.824218 1.476563-6.992187 5.015625-17.351562 5.015625-10.363282 0-16.53125-3.542969-17.210938-4.304687v-38.71875c0-4.753906-3.847656-8.605469-8.605468-8.605469-4.757813 0-8.605469 3.851563-8.605469 8.605469v38.71875c0 12.46875 14.476562 21.515625 34.417969 21.515625 19.941406 0 34.421874-9.046875 34.421874-21.515625v-4.238282c.003907-.363281.160157-4.996093 2.363282-11.148437l41.375 6.335937c.148437.066407.246094.191407.402344.253907 17.546874 6.660156 26.957031 15.347656 29.90625 21.253906 8.589843 17.179687 26.226562 44.054687 44.636718 62.46875 14.367188 14.359375 31.980469 104.65625 23.382813 164.792969zm0 0"/><path d="m142.007812 308.824219c1.464844-2.9375 2.757813-6.019531 3.824219-9.222657 8.949219-26.828124 9.050781-53.242187 9.050781-54.351562 0-4.75-3.847656-8.605469-8.605468-8.605469-4.757813 0-8.605469 3.855469-8.605469 8.605469 0 .242188-.09375 24.695312-8.160156 48.90625-1.234375 3.6875-2.882813 7.203125-4.78125 10.492188l-27.730469 29.34375c-3.007812 3.183593-3.152344 8.113281-.328125 11.460937 2.828125 3.347656 7.695313 4.046875 11.351563 1.609375.769531-.511719 13.167968-8.894531 24.132812-22.828125 14.285156 19.582031 23.117188 44.089844 23.21875 44.371094 1.261719 3.523437 4.570312 5.71875 8.109375 5.71875.957031 0 1.933594-.160157 2.882813-.5 4.480468-1.589844 6.816406-6.511719 5.226562-10.984375-.484375-1.371094-11.351562-31.574219-29.585938-54.015625zm0 0"/><path d="m322.566406 283.054688c-5.722656-16.125-12.859375-36.195313-22.847656-51.183594-20.167969-30.253906-67.097656-21.273438-69.082031-20.871094-4.238281.847656-7.195313 4.707031-6.902344 9.023438.296875 4.3125 3.75 7.742187 8.070313 8l27.359374 1.671874c-2.007812 3.328126-4.433593 6.800782-7.109374 9.46875-9.679688 9.683594-11.125 51.097657-11.125 74.921876 0 4.753906 3.847656 8.605468 8.605468 8.605468 4.753906 0 8.605469-3.851562 8.605469-8.605468 0-26.09375 2.535156-57.640626 6.082031-62.753907 5.351563-5.347656 9.738282-12.535156 12.65625-18.03125 3.308594 2.050781 6.242188 4.703125 8.519532 8.113281 8.804687 13.214844 15.546874 32.167969 20.949218 47.398438 5.914063 16.652344 9.511719 26.320312 14.546875 31.355469 3.226563 3.230469 6.074219 20.496093 6.082031 36.945312 0 4.746094 3.855469 8.601563 8.605469 8.601563 4.757813-.007813 8.605469-3.855469 8.605469-8.605469 0-8.914063-.796875-38.785156-11.125-49.109375-2.53125-2.527344-6.949219-14.953125-10.496094-24.945312zm0 0"/><path d="m298.785156 294.507812c-4.109375-2.402343-9.367187-1.03125-11.78125 3.058594-12.46875 21.21875-19.234375 39.992188-20.148437 55.875l-49.21875 49.21875c-3.359375 3.359375-3.359375 8.804688 0 12.164063 3.359375 3.363281 8.808593 3.363281 12.167969 0l37.914062-37.917969c2.371094 23.082031 8.226562 35.066406 8.539062 35.683594 1.484376 2.980468 4.511719 4.757812 7.695313 4.757812.882813 0 1.785156-.132812 2.664063-.421875 4.050781-1.316406 6.519531-5.398437 5.824218-9.597656l-8.476562-50.894531c.203125-13.25 6.378906-30.566406 17.878906-50.144532 2.40625-4.09375 1.035156-9.371093-3.058594-11.78125zm0 0"/></svg>