<svg height="480pt" viewBox="0 -88 480.01318 480" width="480pt" xmlns="http://www.w3.org/2000/svg"><path d="m475.582031 40.851562-28.039062-14.015624c0-.167969 0-.328126 0-.496094-2.441407-13.136719-12.726563-23.40625-25.867188-25.832032-8.191406-1.472656-16.640625.335938-23.511719 5.039063-1.953124 1.480469-4.308593 2.335937-6.757812 2.464844h-2.015625c-25.050781.007812-45.359375 20.300781-45.386719 45.351562v26.648438h-20.238281c-21.710937-25.449219-53.507813-40.078125-86.960937-40h-3.878907c-28.308593-.015625-55.617187 10.464843-76.648437 29.414062l-49.601563 44.640625c-1.746093 1.570313-2.710937 3.828125-2.644531 6.175782.050781 1.25.402344 2.472656 1.023438 3.5625l-67.449219 44.207031h-29.601563c-4.417968 0-7.99999975 3.582031-7.99999975 8 .03515625 3.855469 2.85156275 7.121093 6.65624975 7.726562l-2.230468 1.113281c-3.953126 1.972657-5.558594 6.78125-3.585938 10.734376 1.976562 3.957031 6.785156 5.558593 10.738281 3.585937l32-16c.273438-.144531.542969-.300781.800781-.472656l73.175782-48 3.726562 2.976562-77.398437 63.359375-38.855469 15.542969c-4.105469 1.644531-6.101562 6.304687-4.457031 10.410156 1.644531 4.101563 6.304687 6.097657 10.40625 4.453125l3.808593-1.527344-4.4375 4.441407c-2.082031 2.007812-2.914062 4.980469-2.183593 7.78125.730469 2.796875 2.917969 4.980469 5.714843 5.710937 2.796876.734375 5.769532-.101562 7.777344-2.179687l31.738282-31.738281 80.664062-66.023438 2.871094 2.296875c39.035156 71.730469 103.339844 126.386719 180.425781 153.351563 2.714844.953124 5.734375.375 7.902344-1.519532 2.171875-1.890625 3.15625-4.804687 2.582031-7.625l-4.230469-20.800781 89.863281 29.953125c.8125.285156 1.667969.4375 2.527344.449219 2.78125.015625 5.371094-1.414063 6.839844-3.777344 1.46875-2.359375 1.605469-5.3125.363281-7.800781l-35.839843-71.679688c-18.09375-36.054687-43.867188-67.710937-75.503907-92.742187h42.789063c25.039062-.027344 45.328125-20.316407 45.351562-45.351563v-23.007812c11.789063 6.953125 26.71875 5.480468 36.921875-3.640625h35.078125c3.714844.003906 6.941406-2.550781 7.796875-6.164063.851563-3.613281-.894531-7.339844-4.21875-8.996094zm-292.375 73.671876 7.351563 7.34375-37.714844 20.542968-3.6875-2.953125zm144.796875 109.617187v34.101563l-3.421875-1.136719c-4.082031-1.359375-8.117187-2.804688-12.113281-4.34375l4.96875-39.726563c3.292969 3.910156 6.824219 7.621094 10.566406 11.105469zm18.28125 13.941406 18.519532 32.441407-20.800782-6.945313v-27.046875c.800782.503906 1.496094 1.078125 2.28125 1.550781zm-49.128906 8.242188c-5.535156-2.507813-10.984375-5.175781-16.351562-8l13.242187-46.3125 9.320313 4.65625zm-30.679688-16.089844c-6.269531-3.808594-12.390624-7.886719-18.398437-12.175781l22.671875-37.71875 8.71875 4.359375zm-31.199218-21.863281-17.464844-13.960938 31.792969-25.414062c2.304687 1.34375 4.671875 2.589844 7.023437 3.871094zm-30.261719-24.207032-13.601563-10.914062 36.589844-18.277344c2.402344 1.726563 4.839844 3.300782 7.265625 4.949219zm-27.410156-21.929687-11.199219-8.960937 36.167969-19.734376c3.765625 3.589844 7.558593 7.160157 11.527343 10.511719zm-1.273438 19.480469 49.496094 39.59375c24.210937 19.382812 51.257813 34.929687 80.195313 46.09375l3.261718 16c-52.726562-21.199219-98.691406-56.351563-132.960937-101.6875zm223.882813 100.601562-12.617188-4.210937-16-27.949219c2.335938.796875 4.648438 1.679688 7.046875 2.398438l7.761719 2.222656zm-27.199219-54.402344 3.511719 7.015626c-24.113282-8.476563-44.507813-25.113282-57.65625-47.03125-.105469-.175782-.265625-.304688-.378906-.464844-.109376-.160156-.328126-.414063-.503907-.621094-.464843-.539062-1.003906-1.011719-1.597656-1.402344-.191406-.128906-.351563-.269531-.554687-.382812-.078126-.046875-.148438-.121094-.238282-.167969l-44.273437-22.136719c-22.894531-11.441406-43.796875-26.5-61.894531-44.601562l-11.199219-11.199219 19.144531-7.65625c5.394531-2.15625 11.15625-3.257813 16.964844-3.253906h1c7.085937 0 14.074218 1.640625 20.417968 4.800781l4.671876 2.335938c8.8125 4.445312 15.957031 11.613281 20.375 20.4375.066406.121093.191406.191406.265624.3125.511719.976562 1.226563 1.832031 2.09375 2.511718l13.601563 10.214844c32.125 24.128906 58.222656 55.371094 76.238281 91.28125zm10.988281-145.253906c-.015625 16.203125-13.148437 29.332032-29.351562 29.351563h-62.125c-5.996094-9.890625-14.632813-17.910157-24.9375-23.160157l-4.671875-2.335937c-8.566407-4.265625-18.003907-6.492187-27.578125-6.503906h-1c-7.84375-.003907-15.617188 1.492187-22.902344 4.40625l-30.398438 12.160156c-.621093.253906-1.207031.582031-1.746093.976563l-43.054688 31.585937-11.855469-9.488281 42.589844-38.335938c18.089844-16.304687 41.578125-25.320312 65.929688-25.304687h3.902344c29.964843-.070313 58.316406 13.558593 76.976562 37 1.515625 1.890625 3.800781 2.992187 6.222656 3h32c4.421875 0 8-3.582031 8-8v-34.648438c.011719-6.085937 1.929688-12.019531 5.480469-16.960937l4.320313.6875c5.652343.933594 10.890624 3.550781 15.023437 7.511718-.527344 1.0625-.808594 2.226563-.824219 3.410157zm44.25-40.359375c-3.035156 3.433594-7.378906 5.429688-11.960937 5.496094-4.585938.066406-8.984375-1.800781-12.121094-5.144531-.277344-.238282-.574219-.449219-.886719-.640625-4.707031-7.683594-11.644531-13.75-19.886718-17.386719 1.960937-.40625 3.957031-.613281 5.960937-.613281h2.015625c5.671875-.101563 11.179688-1.933594 15.78125-5.25 3.421875-2.363281 7.644531-3.261719 11.730469-2.496094 6.496093 1.25 11.582031 6.3125 12.863281 12.800781.875 4.710938-.40625 9.566406-3.496094 13.234375zm0 0"/><path d="m420.40625 25.371094c-.410156-.316406-.867188-.5625-1.359375-.71875-.453125-.234375-.941406-.394532-1.441406-.480469-2.632813-.539063-5.363281.269531-7.28125 2.160156-1.460938 1.53125-2.289063 3.5625-2.320313 5.679688-.019531 2.128906.816406 4.175781 2.320313 5.679687.777343.730469 1.667969 1.324219 2.640625 1.757813.96875.382812 2 .574219 3.039062.5625 2.128906.015625 4.175782-.820313 5.683594-2.320313.703125-.78125 1.269531-1.671875 1.679688-2.640625.410156-.960937.625-1.996093.636718-3.039062-.027344-2.117188-.855468-4.148438-2.316406-5.679688-.394531-.363281-.824219-.6875-1.28125-.960937zm0 0"/></svg>